<?xml version="1.0"?>
<svg xmlns="http://www.w3.org/2000/svg" xmlns:xlink="http://www.w3.org/1999/xlink" version="1.1" id="Capa_1" x="0px" y="0px" viewBox="0 0 426.667 426.667" style="enable-background:new 0 0 426.667 426.667;" xml:space="preserve" width="512px" height="512px"><g><g>
	<g>
		<path d="M384,64H42.667C19.093,64,0.213,83.093,0.213,106.667L0,320c0,23.573,19.093,42.667,42.667,42.667H384    c23.573,0,42.667-19.093,42.667-42.667V106.667C426.667,83.093,407.573,64,384,64z M192,128h42.667v42.667H192V128z M192,192    h42.667v42.667H192V192z M128,128h42.667v42.667H128V128z M128,192h42.667v42.667H128V192z M106.667,234.667H64V192h42.667    V234.667z M106.667,170.667H64V128h42.667V170.667z M298.667,320H128v-42.667h170.667V320z M298.667,234.667H256V192h42.667    V234.667z M298.667,170.667H256V128h42.667V170.667z M362.667,234.667H320V192h42.667V234.667z M362.667,170.667H320V128h42.667    V170.667z" data-original="#000000" class="active-path" data-old_color="#000000" fill="#5F7D95"/>
	</g>
</g></g> </svg>
